# xmcd
#
# Track frame offsets:
#	150
#	20548
#	33472
#	50667
#	72989
#	91127
#	113571
#	131115
#	146731
#	163614
#	181958
#
# Disc length: 2749 seconds
#
# Revision: 0
# Processed by: cddbd v1.5.2PL0 Copyright (c) Steve Scherf et al.
# Submitted via: audiograbber 1.83.01
#
DISCID=980abb0b
DTITLE=Keith Urban - Karaoke
DYEAR=1900
DGENRE=
TTITLE0=Keith Urban - But For The Grace Of God
TTITLE1=Keith Urban - Where The Blacktop Ends
TTITLE2=Keith Urban - Where Ever I Run
TTITLE3=Keith Urban - Raining On Sunday
TTITLE4=Keith Urban - Somdbody Like You
TTITLE5=Keith Urban - You'll Think Of Me
TTITLE6=Keith Urban - Who Wouldn't Wanna Be Me
TTITLE7=Keith Urban - Die Of A Broken Heart(Duet W/Carolyn Johnson
TTITLE8=Keith Urban - Days Go By
TTITLE9=Keith Urban - Your Every Thing
TTITLE10=Keith Urban - You Look Good In My Shirt
EXTD=
EXTT0=
EXTT1=
EXTT2=
EXTT3=
EXTT4=
EXTT5=
EXTT6=
EXTT7=
EXTT8=
EXTT9=
EXTT10=
PLAYORDER=
